<?xml version="1.0" encoding="UTF-8"?>
<svg width="64" height="64" viewBox="0 0 64 64" xmlns="http://www.w3.org/2000/svg">
  <!-- Famick House Icon - The "m" from the logo styled as a house -->

  <!-- House body (the "m" shape) -->
  <path d="M8 54 L8 28 Q8 24 12 24 L20 24 L20 28 Q20 20 32 12 Q44 20 44 28 L44 24 L52 24 Q56 24 56 28 L56 54"
        fill="#9E9E9E" stroke="none"/>

  <!-- Roof/chimney area -->
  <path d="M20 28 Q20 20 32 12 Q44 20 44 28"
        fill="#9E9E9E" stroke="none"/>

  <!-- Chimney -->
  <rect x="40" y="8" width="6" height="12" rx="1" fill="#9E9E9E"/>

  <!-- Chimney smoke -->
  <g fill="#A8A8A8">
    <circle cx="43" cy="4" r="3"/>
    <circle cx="46" cy="1" r="2"/>
  </g>

  <!-- Left window -->
  <rect x="14" y="34" width="10" height="14" rx="1" fill="white"/>
  <line x1="19" y1="34" x2="19" y2="48" stroke="#9E9E9E" stroke-width="1"/>
  <line x1="14" y1="41" x2="24" y2="41" stroke="#9E9E9E" stroke-width="1"/>

  <!-- Right window -->
  <rect x="40" y="34" width="10" height="14" rx="1" fill="white"/>
  <line x1="45" y1="34" x2="45" y2="48" stroke="#9E9E9E" stroke-width="1"/>
  <line x1="40" y1="41" x2="50" y2="41" stroke="#9E9E9E" stroke-width="1"/>
</svg>
