<?xml version="1.0" encoding="UTF-8"?>
<svg width="64" height="64" viewBox="348 11 262 277" xmlns="http://www.w3.org/2000/svg">
  <path id="TheM"
        fill="#b1b3a7" stroke="white" stroke-width="1"
        d="M 427.00,12.48
           C 430.44,12.06 433.94,11.94 436.69,14.51
             440.83,18.39 438.71,26.08 431.00,27.66
             428.34,28.20 423.51,28.20 421.13,26.83
             416.55,24.19 416.51,18.30 421.13,14.88
             423.04,13.47 424.79,13.07 427.00,12.48 Z
           M 369.00,41.00
           C 365.84,40.99 363.09,41.11 360.00,40.21
             348.40,36.86 349.79,27.35 354.23,23.99
             360.34,19.37 372.97,19.67 380.00,21.78
             383.32,22.78 387.10,24.58 388.20,28.04
             389.32,30.50 388.67,32.63 388.20,35.00
             403.60,35.00 418.74,35.71 430.99,47.10
             443.11,58.38 445.36,76.65 430.99,87.21
             420.92,94.61 411.80,95.00 400.00,95.00
             403.74,101.07 404.18,102.88 403.98,110.00
             403.19,138.70 346.92,132.88 355.05,102.00
             355.97,98.54 357.60,95.71 360.18,93.21
             363.53,89.97 367.71,88.50 372.00,87.00
             359.76,78.11 351.65,64.57 360.48,50.00
             363.08,45.70 365.25,44.11 369.00,41.00 Z
           M 407.00,146.00
           C 425.75,128.13 448.41,124.31 473.00,130.63
             483.13,133.23 495.35,139.16 500.00,149.00
             500.00,149.00 519.00,137.27 519.00,137.27
             534.07,129.75 546.44,127.81 563.00,128.00
             581.14,128.22 599.91,142.77 605.23,160.00
             607.45,167.20 609.08,179.44 609.00,187.00
             609.00,187.00 608.00,202.00 608.00,202.00
             608.00,202.00 608.00,240.00 608.00,240.00
             608.00,240.00 608.00,261.00 608.00,261.00
             608.00,261.00 607.09,272.00 607.09,272.00
             606.90,274.71 607.50,281.45 605.98,283.41
             603.77,286.25 593.51,286.99 590.00,287.00
             590.00,287.00 575.00,287.00 575.00,287.00
             575.00,287.00 555.00,286.08 555.00,286.08
             552.02,285.90 547.92,286.20 545.51,284.15
             542.63,281.70 543.01,276.45 543.00,273.00
             543.00,273.00 542.09,251.17 542.09,251.17
             542.09,251.17 542.09,238.00 542.09,238.00
             542.09,238.00 542.09,195.00 542.09,195.00
             541.79,179.74 526.24,172.69 515.11,183.21
             510.05,187.99 510.01,192.59 510.00,199.00
             510.00,199.00 510.00,248.00 510.00,248.00
             510.00,248.00 509.04,260.00 509.04,260.00
             509.04,260.00 509.04,273.00 509.04,273.00
             508.97,275.63 508.90,280.35 507.07,282.40
             504.86,284.87 495.32,284.99 492.00,285.00
             492.00,285.00 462.00,285.00 462.00,285.00
             458.54,285.00 450.95,285.49 448.15,283.83
             444.76,281.82 445.02,278.43 445.00,275.00
             445.00,275.00 445.00,240.00 445.00,240.00
             445.00,240.00 446.00,222.00 446.00,222.00
             446.10,211.90 448.01,195.06 441.61,187.01
             435.05,178.77 426.24,176.95 418.30,184.47
             415.98,186.66 413.60,189.93 412.65,193.00
             411.89,195.45 412.00,198.44 412.00,201.00
             412.00,201.00 412.00,250.00 412.00,250.00
             412.00,250.00 411.04,262.00 411.04,262.00
             411.04,262.00 411.04,275.00 411.04,275.00
             410.97,277.63 410.90,282.35 409.07,284.40
             406.86,286.87 397.32,286.99 394.00,287.00
             394.00,287.00 363.00,287.00 363.00,287.00
             360.17,287.00 352.66,287.47 350.57,285.83
             348.59,284.26 349.00,280.30 349.14,278.00
             349.14,278.00 349.14,245.87 349.14,245.87
             349.14,245.87 350.00,229.00 350.00,229.00
             350.00,229.00 349.00,215.00 349.00,215.00
             349.00,215.00 349.00,184.00 349.00,184.00
             349.00,184.00 348.00,168.00 348.00,168.00
             348.00,168.00 348.00,143.00 348.00,143.00
             348.02,130.73 350.58,133.98 362.00,134.00
             362.00,134.00 393.00,134.00 393.00,134.00
             396.11,134.00 403.05,133.34 405.26,135.60
             407.43,137.81 407.00,143.05 407.00,146.00 Z
           M 475.00,189.00
           C 475.00,189.00 461.60,190.02 461.60,190.02
             461.60,190.02 460.00,198.00 460.00,198.00
             460.00,198.00 460.00,218.00 460.00,218.00
             460.00,218.00 475.00,219.00 475.00,219.00
             475.00,219.00 475.00,189.00 475.00,189.00 Z
           M 495.00,219.00
           C 495.00,219.00 495.00,196.00 495.00,196.00
             495.00,196.00 493.40,190.02 493.40,190.02
             493.40,190.02 478.00,189.00 478.00,189.00
             478.00,189.00 479.00,219.00 479.00,219.00
             479.00,219.00 495.00,219.00 495.00,219.00 Z
           M 574.00,190.00
           C 574.00,190.00 560.60,191.02 560.60,191.02
             560.60,191.02 559.00,199.00 559.00,199.00
             559.00,199.00 559.00,219.00 559.00,219.00
             559.00,219.00 574.00,220.00 574.00,220.00
             574.00,220.00 574.00,190.00 574.00,190.00 Z
           M 594.00,220.00
           C 594.00,220.00 594.00,198.00 594.00,198.00
             593.95,195.48 594.05,192.60 591.69,191.02
             589.36,189.47 580.16,190.00 577.00,190.00
             577.00,190.00 578.00,220.00 578.00,220.00
             578.00,220.00 594.00,220.00 594.00,220.00 Z
           M 377.00,191.00
           C 377.00,191.00 363.60,192.02 363.60,192.02
             363.60,192.02 362.00,200.00 362.00,200.00
             362.00,200.00 362.00,220.00 362.00,220.00
             362.00,220.00 377.00,221.00 377.00,221.00
             377.00,221.00 377.00,191.00 377.00,191.00 Z
           M 397.00,221.00
           C 397.00,221.00 397.00,198.00 397.00,198.00
             397.00,198.00 395.40,192.02 395.40,192.02
             395.40,192.02 380.00,191.00 380.00,191.00
             380.00,191.00 381.00,221.00 381.00,221.00
             381.00,221.00 397.00,221.00 397.00,221.00 Z
           M 475.04,223.00
           C 475.04,223.00 460.00,223.00 460.00,223.00
             460.00,223.00 460.00,241.00 460.00,241.00
             460.00,241.00 461.60,246.98 461.60,246.98
             461.60,246.98 476.00,248.00 476.00,248.00
             476.00,248.00 475.04,239.00 475.04,239.00
             475.04,239.00 475.04,223.00 475.04,223.00 Z
           M 495.00,223.00
           C 495.00,223.00 479.00,223.00 479.00,223.00
             479.00,223.00 479.00,248.00 479.00,248.00
             479.00,248.00 493.26,247.01 493.26,247.01
             493.26,247.01 495.00,239.00 495.00,239.00
             495.00,239.00 495.00,223.00 495.00,223.00 Z
           M 574.04,224.00
           C 574.04,224.00 559.00,224.00 559.00,224.00
             559.00,224.00 559.00,242.00 559.00,242.00
             559.00,242.00 560.60,247.98 560.60,247.98
             560.60,247.98 575.00,249.00 575.00,249.00
             575.00,249.00 574.04,240.00 574.04,240.00
             574.04,240.00 574.04,224.00 574.04,224.00 Z
           M 594.00,224.00
           C 594.00,224.00 578.00,224.00 578.00,224.00
             578.00,224.00 578.00,249.00 578.00,249.00
             578.00,249.00 593.00,249.00 593.00,249.00
             593.00,249.00 594.00,224.00 594.00,224.00 Z
           M 377.04,225.00
           C 377.04,225.00 362.00,225.00 362.00,225.00
             362.00,225.00 362.00,243.00 362.00,243.00
             362.00,243.00 363.60,248.98 363.60,248.98
             363.60,248.98 378.00,250.00 378.00,250.00
             378.00,250.00 377.04,241.00 377.04,241.00
             377.04,241.00 377.04,225.00 377.04,225.00 Z
           M 397.00,225.00
           C 397.00,225.00 381.00,225.00 381.00,225.00
             381.00,225.00 381.00,250.00 381.00,250.00
             381.00,250.00 396.00,250.00 396.00,250.00
             396.00,250.00 397.00,225.00 397.00,225.00 Z" />
  <path id="Windows"
        fill="white" stroke="none" stroke-width="1"
        d="M 460.00,218.00
           C 460.00,218.00 460.00,197.00 460.00,197.00
             460.00,197.00 461.74,189.99 461.74,189.99
             461.74,189.99 475.00,189.00 475.00,189.00
             475.00,189.00 475.00,218.00 475.00,218.00
             475.00,218.00 460.00,218.00 460.00,218.00 Z
           M 479.00,189.00
           C 479.00,189.00 492.40,190.02 492.40,190.02
             492.40,190.02 494.00,198.00 494.00,198.00
             494.00,198.00 494.00,219.00 494.00,219.00
             494.00,219.00 479.00,218.00 479.00,218.00
             479.00,218.00 479.00,189.00 479.00,189.00 Z
           M 559.00,219.00
           C 559.00,219.00 559.00,198.00 559.00,198.00
             559.00,198.00 560.74,190.99 560.74,190.99
             560.74,190.99 574.00,190.00 574.00,190.00
             574.00,190.00 574.00,219.00 574.00,219.00
             574.00,219.00 559.00,219.00 559.00,219.00 Z
           M 578.00,190.00
           C 578.00,190.00 591.43,191.17 591.43,191.17
             591.43,191.17 593.00,199.00 593.00,199.00
             593.00,199.00 593.00,220.00 593.00,220.00
             593.00,220.00 578.00,219.00 578.00,219.00
             578.00,219.00 578.00,190.00 578.00,190.00 Z
           M 362.00,220.00
           C 362.00,220.00 362.00,199.00 362.00,199.00
             362.00,199.00 363.74,191.99 363.74,191.99
             363.74,191.99 377.00,191.00 377.00,191.00
             377.00,191.00 377.00,220.00 377.00,220.00
             377.00,220.00 362.00,220.00 362.00,220.00 Z
           M 381.00,191.00
           C 381.00,191.00 394.40,192.02 394.40,192.02
             394.40,192.02 396.00,200.00 396.00,200.00
             396.00,200.00 396.00,221.00 396.00,221.00
             396.00,221.00 381.00,220.00 381.00,220.00
             381.00,220.00 381.00,191.00 381.00,191.00 Z
           M 460.00,223.00
           C 460.00,223.00 475.00,224.00 475.00,224.00
             475.00,224.00 475.00,248.00 475.00,248.00
             475.00,248.00 461.57,246.83 461.57,246.83
             461.57,246.83 460.00,239.00 460.00,239.00
             460.00,239.00 460.00,223.00 460.00,223.00 Z
           M 479.00,224.00
           C 479.00,224.00 494.00,223.00 494.00,223.00
             494.00,223.00 494.00,241.00 494.00,241.00
             494.00,241.00 492.40,246.98 492.40,246.98
             492.40,246.98 479.00,248.00 479.00,248.00
             479.00,248.00 479.00,224.00 479.00,224.00 Z
           M 559.00,224.00
           C 559.00,224.00 574.00,225.00 574.00,225.00
             574.00,225.00 574.00,249.00 574.00,249.00
             574.00,249.00 560.57,247.83 560.57,247.83
             560.57,247.83 559.00,240.00 559.00,240.00
             559.00,240.00 559.00,224.00 559.00,224.00 Z
           M 578.00,225.00
           C 578.00,225.00 593.00,224.00 593.00,224.00
             593.00,224.00 593.00,242.00 593.00,242.00
             593.00,242.00 591.40,247.98 591.40,247.98
             591.40,247.98 578.00,249.00 578.00,249.00
             578.00,249.00 578.00,225.00 578.00,225.00 Z
           M 362.00,225.00
           C 362.00,225.00 377.00,226.00 377.00,226.00
             377.00,226.00 377.00,250.00 377.00,250.00
             377.00,250.00 363.57,248.83 363.57,248.83
             363.57,248.83 362.00,241.00 362.00,241.00
             362.00,241.00 362.00,225.00 362.00,225.00 Z
           M 381.00,226.00
           C 381.00,226.00 396.00,225.00 396.00,225.00
             396.00,225.00 396.00,242.00 396.00,242.00
             396.00,242.00 394.26,249.01 394.26,249.01
             394.26,249.01 381.00,250.00 381.00,250.00
             381.00,250.00 381.00,226.00 381.00,226.00 Z" />

</svg>
