<?xml version="1.0" encoding="UTF-8" standalone="no"?>
<svg xmlns="http://www.w3.org/2000/svg"
     xmlns:svg="http://www.w3.org/2000/svg"
     version="1.1"
     width="3.31586in" height="1.22696in"
     viewBox="0 0 1081 400">
  <path id="TheF"
        fill="#81bb7d" stroke="none" stroke-width="1"
        d="M 100.00,137.00
           C 100.00,111.15 105.70,83.04 134.00,74.22
             141.52,71.87 155.98,71.42 164.00,71.87
             173.44,72.40 179.67,72.85 189.00,75.13
             192.47,75.98 197.06,76.76 199.12,80.13
             200.49,82.78 199.67,86.16 199.12,89.00
             199.12,89.00 196.25,108.00 196.25,108.00
             195.64,111.14 195.23,114.02 191.89,115.29
             188.64,116.75 183.41,115.46 180.00,115.29
             173.16,114.60 166.82,116.63 163.44,123.00
             161.66,126.36 159.59,133.37 164.23,135.40
             167.62,136.88 183.36,132.67 187.10,136.74
             188.92,138.72 188.97,143.42 188.93,146.00
             189.03,148.73 189.41,155.87 188.93,158.00
             187.03,165.31 179.87,172.61 188.00,180.00
             188.00,180.00 188.00,182.00 188.00,182.00
             188.00,182.00 163.00,183.00 163.00,183.00
             163.00,183.00 164.00,207.00 164.00,207.00
             164.00,207.00 164.00,265.00 164.00,265.00
             164.00,265.00 164.00,282.00 164.00,282.00
             163.96,284.36 164.06,287.46 162.26,289.26
             160.18,291.35 155.76,291.00 153.00,291.00
             153.00,291.00 138.00,291.00 138.00,291.00
             138.00,291.00 121.00,292.00 121.00,292.00
             117.36,292.01 105.02,292.66 102.53,290.83
             99.68,288.72 100.01,282.21 100.00,279.00
             100.00,279.00 100.00,233.00 100.00,233.00
             100.00,233.00 99.00,216.00 99.00,216.00
             98.99,207.83 99.76,192.24 98.00,185.00
             94.29,185.88 82.45,186.18 79.74,183.40
             77.83,181.45 77.94,176.70 77.58,174.00
             77.58,174.00 76.00,146.00 76.00,146.00
             76.01,143.48 75.66,139.69 77.56,137.77
             80.41,134.89 95.95,136.06 100.00,137.00 Z" />
    <path id="TheA"
        fill="#638f60" stroke="none" stroke-width="1"
        d="M 292.00,271.00
           C 272.49,288.75 242.14,293.80 217.00,287.37
             194.03,281.49 179.72,268.69 180.00,244.00
             180.05,240.15 180.69,234.68 181.78,231.00
             189.70,204.27 225.43,198.68 249.00,194.42
             256.42,193.09 270.19,190.37 277.00,187.91
             280.18,186.76 284.74,185.02 284.63,180.96
             284.34,170.83 269.16,170.19 262.00,171.30
             256.68,172.12 252.21,174.33 248.52,178.30
             245.99,181.01 244.53,184.48 240.91,185.98
             237.46,187.41 228.06,185.57 224.00,185.17
             224.00,185.17 197.00,182.27 197.00,182.27
             193.41,181.76 188.30,181.45 185.63,178.43
             183.12,175.14 184.34,169.70 185.63,166.00
             190.80,148.00 207.25,139.18 224.00,133.67
             247.59,125.90 275.84,125.17 300.00,130.58
             312.84,133.45 327.06,139.32 336.71,148.46
             345.72,157.00 349.43,172.88 348.96,185.00
             348.96,185.00 348.04,197.00 348.04,197.00
             348.04,197.00 349.00,210.00 349.00,210.00
             349.00,210.00 349.00,274.00 349.00,274.00
             348.98,286.70 347.68,286.98 338.00,286.94
             338.00,286.94 310.15,286.94 310.15,286.94
             307.48,286.80 299.35,286.26 297.39,284.98
             294.17,282.88 292.57,274.68 292.00,271.00 Z
           M 286.00,219.00
           C 286.00,219.00 259.00,226.42 259.00,226.42
             254.76,227.60 248.68,229.38 245.56,232.55
             239.56,238.64 240.47,253.63 255.83,252.88
             268.27,252.27 279.14,246.13 283.45,234.00
             285.15,229.24 285.11,223.96 286.00,219.00 Z" />
  <path id="TheM"
        fill="#b1b3a7" stroke="none" stroke-width="1"
        d="M 427.00,12.48
           C 430.44,12.06 433.94,11.94 436.69,14.51
             440.83,18.39 438.71,26.08 431.00,27.66
             428.34,28.20 423.51,28.20 421.13,26.83
             416.55,24.19 416.51,18.30 421.13,14.88
             423.04,13.47 424.79,13.07 427.00,12.48 Z
           M 369.00,41.00
           C 365.84,40.99 363.09,41.11 360.00,40.21
             348.40,36.86 349.79,27.35 354.23,23.99
             360.34,19.37 372.97,19.67 380.00,21.78
             383.32,22.78 387.10,24.58 388.20,28.04
             389.32,30.50 388.67,32.63 388.20,35.00
             403.60,35.00 418.74,35.71 430.99,47.10
             443.11,58.38 445.36,76.65 430.99,87.21
             420.92,94.61 411.80,95.00 400.00,95.00
             403.74,101.07 404.18,102.88 403.98,110.00
             403.19,138.70 346.92,132.88 355.05,102.00
             355.97,98.54 357.60,95.71 360.18,93.21
             363.53,89.97 367.71,88.50 372.00,87.00
             359.76,78.11 351.65,64.57 360.48,50.00
             363.08,45.70 365.25,44.11 369.00,41.00 Z
           M 407.00,146.00
           C 425.75,128.13 448.41,124.31 473.00,130.63
             483.13,133.23 495.35,139.16 500.00,149.00
             500.00,149.00 519.00,137.27 519.00,137.27
             534.07,129.75 546.44,127.81 563.00,128.00
             581.14,128.22 599.91,142.77 605.23,160.00
             607.45,167.20 609.08,179.44 609.00,187.00
             609.00,187.00 608.00,202.00 608.00,202.00
             608.00,202.00 608.00,240.00 608.00,240.00
             608.00,240.00 608.00,261.00 608.00,261.00
             608.00,261.00 607.09,272.00 607.09,272.00
             606.90,274.71 607.50,281.45 605.98,283.41
             603.77,286.25 593.51,286.99 590.00,287.00
             590.00,287.00 575.00,287.00 575.00,287.00
             575.00,287.00 555.00,286.08 555.00,286.08
             552.02,285.90 547.92,286.20 545.51,284.15
             542.63,281.70 543.01,276.45 543.00,273.00
             543.00,273.00 542.09,251.17 542.09,251.17
             542.09,251.17 542.09,238.00 542.09,238.00
             542.09,238.00 542.09,195.00 542.09,195.00
             541.79,179.74 526.24,172.69 515.11,183.21
             510.05,187.99 510.01,192.59 510.00,199.00
             510.00,199.00 510.00,248.00 510.00,248.00
             510.00,248.00 509.04,260.00 509.04,260.00
             509.04,260.00 509.04,273.00 509.04,273.00
             508.97,275.63 508.90,280.35 507.07,282.40
             504.86,284.87 495.32,284.99 492.00,285.00
             492.00,285.00 462.00,285.00 462.00,285.00
             458.54,285.00 450.95,285.49 448.15,283.83
             444.76,281.82 445.02,278.43 445.00,275.00
             445.00,275.00 445.00,240.00 445.00,240.00
             445.00,240.00 446.00,222.00 446.00,222.00
             446.10,211.90 448.01,195.06 441.61,187.01
             435.05,178.77 426.24,176.95 418.30,184.47
             415.98,186.66 413.60,189.93 412.65,193.00
             411.89,195.45 412.00,198.44 412.00,201.00
             412.00,201.00 412.00,250.00 412.00,250.00
             412.00,250.00 411.04,262.00 411.04,262.00
             411.04,262.00 411.04,275.00 411.04,275.00
             410.97,277.63 410.90,282.35 409.07,284.40
             406.86,286.87 397.32,286.99 394.00,287.00
             394.00,287.00 363.00,287.00 363.00,287.00
             360.17,287.00 352.66,287.47 350.57,285.83
             348.59,284.26 349.00,280.30 349.14,278.00
             349.14,278.00 349.14,245.87 349.14,245.87
             349.14,245.87 350.00,229.00 350.00,229.00
             350.00,229.00 349.00,215.00 349.00,215.00
             349.00,215.00 349.00,184.00 349.00,184.00
             349.00,184.00 348.00,168.00 348.00,168.00
             348.00,168.00 348.00,143.00 348.00,143.00
             348.02,130.73 350.58,133.98 362.00,134.00
             362.00,134.00 393.00,134.00 393.00,134.00
             396.11,134.00 403.05,133.34 405.26,135.60
             407.43,137.81 407.00,143.05 407.00,146.00 Z
           M 475.00,189.00
           C 475.00,189.00 461.60,190.02 461.60,190.02
             461.60,190.02 460.00,198.00 460.00,198.00
             460.00,198.00 460.00,218.00 460.00,218.00
             460.00,218.00 475.00,219.00 475.00,219.00
             475.00,219.00 475.00,189.00 475.00,189.00 Z
           M 495.00,219.00
           C 495.00,219.00 495.00,196.00 495.00,196.00
             495.00,196.00 493.40,190.02 493.40,190.02
             493.40,190.02 478.00,189.00 478.00,189.00
             478.00,189.00 479.00,219.00 479.00,219.00
             479.00,219.00 495.00,219.00 495.00,219.00 Z
           M 574.00,190.00
           C 574.00,190.00 560.60,191.02 560.60,191.02
             560.60,191.02 559.00,199.00 559.00,199.00
             559.00,199.00 559.00,219.00 559.00,219.00
             559.00,219.00 574.00,220.00 574.00,220.00
             574.00,220.00 574.00,190.00 574.00,190.00 Z
           M 594.00,220.00
           C 594.00,220.00 594.00,198.00 594.00,198.00
             593.95,195.48 594.05,192.60 591.69,191.02
             589.36,189.47 580.16,190.00 577.00,190.00
             577.00,190.00 578.00,220.00 578.00,220.00
             578.00,220.00 594.00,220.00 594.00,220.00 Z
           M 377.00,191.00
           C 377.00,191.00 363.60,192.02 363.60,192.02
             363.60,192.02 362.00,200.00 362.00,200.00
             362.00,200.00 362.00,220.00 362.00,220.00
             362.00,220.00 377.00,221.00 377.00,221.00
             377.00,221.00 377.00,191.00 377.00,191.00 Z
           M 397.00,221.00
           C 397.00,221.00 397.00,198.00 397.00,198.00
             397.00,198.00 395.40,192.02 395.40,192.02
             395.40,192.02 380.00,191.00 380.00,191.00
             380.00,191.00 381.00,221.00 381.00,221.00
             381.00,221.00 397.00,221.00 397.00,221.00 Z
           M 475.04,223.00
           C 475.04,223.00 460.00,223.00 460.00,223.00
             460.00,223.00 460.00,241.00 460.00,241.00
             460.00,241.00 461.60,246.98 461.60,246.98
             461.60,246.98 476.00,248.00 476.00,248.00
             476.00,248.00 475.04,239.00 475.04,239.00
             475.04,239.00 475.04,223.00 475.04,223.00 Z
           M 495.00,223.00
           C 495.00,223.00 479.00,223.00 479.00,223.00
             479.00,223.00 479.00,248.00 479.00,248.00
             479.00,248.00 493.26,247.01 493.26,247.01
             493.26,247.01 495.00,239.00 495.00,239.00
             495.00,239.00 495.00,223.00 495.00,223.00 Z
           M 574.04,224.00
           C 574.04,224.00 559.00,224.00 559.00,224.00
             559.00,224.00 559.00,242.00 559.00,242.00
             559.00,242.00 560.60,247.98 560.60,247.98
             560.60,247.98 575.00,249.00 575.00,249.00
             575.00,249.00 574.04,240.00 574.04,240.00
             574.04,240.00 574.04,224.00 574.04,224.00 Z
           M 594.00,224.00
           C 594.00,224.00 578.00,224.00 578.00,224.00
             578.00,224.00 578.00,249.00 578.00,249.00
             578.00,249.00 593.00,249.00 593.00,249.00
             593.00,249.00 594.00,224.00 594.00,224.00 Z
           M 377.04,225.00
           C 377.04,225.00 362.00,225.00 362.00,225.00
             362.00,225.00 362.00,243.00 362.00,243.00
             362.00,243.00 363.60,248.98 363.60,248.98
             363.60,248.98 378.00,250.00 378.00,250.00
             378.00,250.00 377.04,241.00 377.04,241.00
             377.04,241.00 377.04,225.00 377.04,225.00 Z
           M 397.00,225.00
           C 397.00,225.00 381.00,225.00 381.00,225.00
             381.00,225.00 381.00,250.00 381.00,250.00
             381.00,250.00 396.00,250.00 396.00,250.00
             396.00,250.00 397.00,225.00 397.00,225.00 Z" />
  <path id="TheI"
        fill="#81bb7d" stroke="none" stroke-width="1"
        d="M 635.00,23.52
           C 649.38,21.24 665.31,26.36 674.47,38.01
             689.70,57.37 685.12,90.23 662.00,101.45
             654.01,105.33 648.71,106.10 640.00,106.00
             609.96,105.64 591.75,73.58 604.12,47.00
             611.06,32.10 619.90,27.54 635.00,23.52 Z
           M 663.00,109.80
           C 667.28,109.63 678.30,109.02 680.26,113.23
             681.04,114.90 682.00,129.35 682.00,132.00
             682.00,132.00 682.00,154.00 682.00,154.00
             682.00,154.00 681.00,171.00 681.00,171.00
             681.00,171.00 681.00,236.00 681.00,236.00
             681.00,236.00 682.00,253.00 682.00,253.00
             682.00,253.00 682.00,277.00 682.00,277.00
             681.96,279.05 682.09,281.57 680.40,283.06
             678.21,284.98 673.73,284.42 671.00,284.84
             671.00,284.84 661.00,284.84 661.00,284.84
             661.00,284.84 622.00,284.84 622.00,284.84
             619.32,284.96 609.56,284.49 608.02,282.40
             606.91,280.81 607.97,274.38 608.02,272.00
             608.02,272.00 608.02,232.00 608.02,232.00
             608.02,232.00 608.92,208.00 608.92,208.00
             608.92,208.00 608.92,177.00 608.92,177.00
             607.98,168.19 606.02,166.16 606.00,156.00
             606.00,156.00 606.00,139.00 606.00,139.00
             606.00,139.00 607.00,125.00 607.00,125.00
             607.04,121.33 605.95,113.42 609.31,111.17
             611.41,109.78 615.52,110.00 618.00,109.80
             618.00,109.80 663.00,109.80 663.00,109.80 Z" />
  <path id="TheC"
        fill="#638f60" stroke="none" stroke-width="1"
        d="M 752.00,111.42
           C 776.35,108.45 806.47,118.41 822.81,137.00
             825.51,140.08 826.20,141.73 828.28,145.00
             831.62,150.24 840.07,163.61 838.65,169.89
             837.64,174.34 830.77,174.79 827.00,175.85
             827.00,175.85 786.00,183.38 786.00,183.38
             779.67,183.90 779.52,180.54 773.98,175.02
             768.84,169.88 763.45,166.37 756.00,166.04
             734.85,165.11 723.06,188.29 726.32,207.00
             727.78,215.40 733.33,223.34 740.00,228.47
             744.95,232.29 750.97,234.59 757.28,234.12
             764.90,233.56 771.72,228.92 776.26,222.96
             778.23,220.36 781.61,214.50 784.30,213.06
             787.01,211.62 794.79,213.54 798.00,214.08
             798.00,214.08 829.00,220.01 829.00,220.01
             830.88,220.52 838.38,222.15 839.39,223.01
             841.94,225.14 840.34,229.47 839.39,232.00
             836.28,240.22 832.80,245.57 828.50,253.00
             815.57,275.31 785.66,290.96 760.00,291.00
             760.00,291.00 750.00,291.00 750.00,291.00
             729.73,290.76 709.00,280.27 695.01,266.00
             686.25,257.05 681.02,249.76 681.00,237.00
             681.00,237.00 681.00,171.00 681.00,171.00
             681.02,157.92 684.66,153.06 692.67,143.00
             707.44,124.42 729.07,114.89 752.00,111.42 Z" />
  <path id="TheK"
        fill="#81bb7d" stroke="none" stroke-width="1"
        d="M 827.00,175.00
           C 831.14,174.65 837.68,174.04 838.59,168.96
             839.17,165.74 836.65,160.85 835.24,158.00
             830.93,149.24 827.05,146.88 826.96,137.00
             826.96,137.00 826.96,124.00 826.96,124.00
             826.96,124.00 826.00,113.00 826.00,113.00
             826.00,113.00 826.00,95.00 826.00,95.00
             826.00,95.00 826.00,77.00 826.00,77.00
             826.05,74.27 826.00,71.65 828.31,69.74
             830.77,67.71 834.97,68.00 838.00,68.00
             838.00,68.00 879.00,68.00 879.00,68.00
             881.77,68.00 886.27,67.68 888.39,69.72
             890.41,71.67 889.99,79.19 890.00,82.00
             890.00,82.00 890.93,101.00 890.93,101.00
             890.93,101.00 890.93,135.00 890.93,135.00
             891.00,142.62 890.16,159.52 892.00,166.00
             894.52,160.66 899.91,155.43 903.93,151.00
             903.93,151.00 920.00,133.00 920.00,133.00
             922.00,130.96 925.66,126.79 928.17,125.74
             930.11,124.92 932.90,125.01 935.00,125.00
             935.00,125.00 952.00,123.87 952.00,123.87
             952.00,123.87 975.00,123.87 975.00,123.87
             981.74,123.99 988.28,122.41 995.00,123.87
             997.64,124.06 1001.30,124.63 1001.39,128.06
             1001.49,132.14 993.80,139.20 991.00,142.00
             991.00,142.00 963.54,168.67 963.54,168.67
             961.49,170.63 954.14,177.08 953.69,179.42
             953.31,181.39 955.57,184.37 956.58,186.00
             956.58,186.00 965.99,202.00 965.99,202.00
             965.99,202.00 998.01,258.00 998.01,258.00
             1000.28,261.88 1008.68,273.26 1005.11,277.40
             1003.39,279.39 999.40,278.95 997.00,279.01
             997.00,279.01 988.58,279.65 988.58,279.65
             988.58,279.65 977.00,279.00 977.00,279.00
             977.00,279.00 946.91,278.33 946.91,278.33
             943.96,278.04 938.41,278.26 936.10,276.98
             932.37,274.91 928.44,265.94 926.36,262.00
             926.36,262.00 907.00,223.00 907.00,223.00
             901.03,229.61 891.18,235.38 891.00,245.00
             891.00,245.00 890.21,268.00 890.21,268.00
             889.95,271.02 889.94,275.10 887.49,277.26
             885.30,279.19 881.74,278.99 879.00,279.00
             879.00,279.00 839.00,279.00 839.00,279.00
             836.24,279.00 831.82,279.35 829.74,277.26
             828.10,275.63 828.09,273.15 828.01,271.00
             827.86,266.66 826.55,258.53 827.42,255.00
             827.42,255.00 838.80,233.00 838.80,233.00
             839.87,230.26 841.75,226.15 839.39,223.58
             837.59,221.64 829.82,220.53 827.00,220.00
             827.00,220.00 827.00,175.00 827.00,175.00 Z" />
  <path id="Windows"
        fill="white" stroke="none" stroke-width="1"
        d="M 460.00,218.00
           C 460.00,218.00 460.00,197.00 460.00,197.00
             460.00,197.00 461.74,189.99 461.74,189.99
             461.74,189.99 475.00,189.00 475.00,189.00
             475.00,189.00 475.00,218.00 475.00,218.00
             475.00,218.00 460.00,218.00 460.00,218.00 Z
           M 479.00,189.00
           C 479.00,189.00 492.40,190.02 492.40,190.02
             492.40,190.02 494.00,198.00 494.00,198.00
             494.00,198.00 494.00,219.00 494.00,219.00
             494.00,219.00 479.00,218.00 479.00,218.00
             479.00,218.00 479.00,189.00 479.00,189.00 Z
           M 559.00,219.00
           C 559.00,219.00 559.00,198.00 559.00,198.00
             559.00,198.00 560.74,190.99 560.74,190.99
             560.74,190.99 574.00,190.00 574.00,190.00
             574.00,190.00 574.00,219.00 574.00,219.00
             574.00,219.00 559.00,219.00 559.00,219.00 Z
           M 578.00,190.00
           C 578.00,190.00 591.43,191.17 591.43,191.17
             591.43,191.17 593.00,199.00 593.00,199.00
             593.00,199.00 593.00,220.00 593.00,220.00
             593.00,220.00 578.00,219.00 578.00,219.00
             578.00,219.00 578.00,190.00 578.00,190.00 Z
           M 362.00,220.00
           C 362.00,220.00 362.00,199.00 362.00,199.00
             362.00,199.00 363.74,191.99 363.74,191.99
             363.74,191.99 377.00,191.00 377.00,191.00
             377.00,191.00 377.00,220.00 377.00,220.00
             377.00,220.00 362.00,220.00 362.00,220.00 Z
           M 381.00,191.00
           C 381.00,191.00 394.40,192.02 394.40,192.02
             394.40,192.02 396.00,200.00 396.00,200.00
             396.00,200.00 396.00,221.00 396.00,221.00
             396.00,221.00 381.00,220.00 381.00,220.00
             381.00,220.00 381.00,191.00 381.00,191.00 Z
           M 460.00,223.00
           C 460.00,223.00 475.00,224.00 475.00,224.00
             475.00,224.00 475.00,248.00 475.00,248.00
             475.00,248.00 461.57,246.83 461.57,246.83
             461.57,246.83 460.00,239.00 460.00,239.00
             460.00,239.00 460.00,223.00 460.00,223.00 Z
           M 479.00,224.00
           C 479.00,224.00 494.00,223.00 494.00,223.00
             494.00,223.00 494.00,241.00 494.00,241.00
             494.00,241.00 492.40,246.98 492.40,246.98
             492.40,246.98 479.00,248.00 479.00,248.00
             479.00,248.00 479.00,224.00 479.00,224.00 Z
           M 559.00,224.00
           C 559.00,224.00 574.00,225.00 574.00,225.00
             574.00,225.00 574.00,249.00 574.00,249.00
             574.00,249.00 560.57,247.83 560.57,247.83
             560.57,247.83 559.00,240.00 559.00,240.00
             559.00,240.00 559.00,224.00 559.00,224.00 Z
           M 578.00,225.00
           C 578.00,225.00 593.00,224.00 593.00,224.00
             593.00,224.00 593.00,242.00 593.00,242.00
             593.00,242.00 591.40,247.98 591.40,247.98
             591.40,247.98 578.00,249.00 578.00,249.00
             578.00,249.00 578.00,225.00 578.00,225.00 Z
           M 362.00,225.00
           C 362.00,225.00 377.00,226.00 377.00,226.00
             377.00,226.00 377.00,250.00 377.00,250.00
             377.00,250.00 363.57,248.83 363.57,248.83
             363.57,248.83 362.00,241.00 362.00,241.00
             362.00,241.00 362.00,225.00 362.00,225.00 Z
           M 381.00,226.00
           C 381.00,226.00 396.00,225.00 396.00,225.00
             396.00,225.00 396.00,242.00 396.00,242.00
             396.00,242.00 394.26,249.01 394.26,249.01
             394.26,249.01 381.00,250.00 381.00,250.00
             381.00,250.00 381.00,226.00 381.00,226.00 Z" />
  <path id="HomeManagement"
        fill="#BDBDBD" stroke="None" stroke-width="1"
        d="M 351.00,308.53
           C 358.36,307.32 366.95,307.23 372.90,312.39
             382.25,320.50 382.25,340.50 372.90,348.61
             367.85,352.98 363.26,353.07 357.00,353.00
             331.41,352.70 330.92,314.97 351.00,308.53 Z
           M 768.00,329.00
           C 768.00,329.00 768.00,341.00 768.00,341.00
             767.78,352.67 756.07,353.11 747.00,353.00
             733.33,352.83 725.27,342.28 726.32,329.00
             726.92,321.56 729.28,314.54 736.04,310.53
             740.63,307.81 744.88,307.94 750.00,308.00
             759.38,308.11 765.14,311.26 767.00,321.19
             764.72,321.18 760.20,322.07 758.28,321.19
             755.05,320.23 753.58,316.18 748.00,316.11
             736.15,315.97 732.01,334.79 742.04,342.57
             748.39,347.49 757.28,344.66 758.00,336.00
             758.00,336.00 748.00,336.00 748.00,336.00
             748.00,336.00 748.00,329.00 748.00,329.00
             748.00,329.00 768.00,329.00 768.00,329.00 Z
           M 289.00,309.00
           C 289.00,309.00 299.00,309.00 299.00,309.00
             299.00,309.00 299.00,326.00 299.00,326.00
             299.00,326.00 315.00,326.00 315.00,326.00
             315.00,326.00 315.00,309.00 315.00,309.00
             315.00,309.00 324.00,309.00 324.00,309.00
             324.00,309.00 324.00,352.00 324.00,352.00
             324.00,352.00 315.00,352.00 315.00,352.00
             315.00,352.00 315.00,333.00 315.00,333.00
             315.00,333.00 299.00,333.00 299.00,333.00
             299.00,333.00 299.00,352.00 299.00,352.00
             299.00,352.00 289.00,352.00 289.00,352.00
             289.00,352.00 289.00,309.00 289.00,309.00 Z
           M 393.00,309.00
           C 393.00,309.00 407.00,309.00 407.00,309.00
             407.00,309.00 413.00,334.00 413.00,334.00
             413.00,334.00 415.00,334.00 415.00,334.00
             415.00,334.00 418.87,317.00 418.87,317.00
             418.87,317.00 421.72,309.99 421.72,309.99
             421.72,309.99 435.00,309.00 435.00,309.00
             435.00,309.00 435.00,352.00 435.00,352.00
             435.00,352.00 426.00,352.00 426.00,352.00
             426.00,352.00 425.00,325.00 425.00,325.00
             425.00,325.00 419.00,352.00 419.00,352.00
             419.00,352.00 409.00,352.00 409.00,352.00
             409.00,352.00 402.00,325.00 402.00,325.00
             402.00,325.00 402.00,352.00 402.00,352.00
             402.00,352.00 393.00,352.00 393.00,352.00
             393.00,352.00 393.00,309.00 393.00,309.00 Z
           M 450.00,309.00
           C 450.00,309.00 483.00,309.00 483.00,309.00
             483.00,309.00 483.00,316.00 483.00,316.00
             483.00,316.00 460.00,316.00 460.00,316.00
             460.00,316.00 460.00,326.00 460.00,326.00
             460.00,326.00 481.00,326.00 481.00,326.00
             481.00,326.00 481.00,333.00 481.00,333.00
             481.00,333.00 460.00,333.00 460.00,333.00
             460.00,333.00 460.00,345.00 460.00,345.00
             460.00,345.00 484.00,345.00 484.00,345.00
             484.00,345.00 484.00,352.00 484.00,352.00
             484.00,352.00 450.00,352.00 450.00,352.00
             450.00,352.00 450.00,309.00 450.00,309.00 Z
           M 521.00,309.00
           C 521.00,309.00 535.00,309.00 535.00,309.00
             535.00,309.00 541.00,334.00 541.00,334.00
             541.00,334.00 543.00,334.00 543.00,334.00
             543.00,334.00 546.87,317.00 546.87,317.00
             546.87,317.00 549.72,309.99 549.72,309.99
             549.72,309.99 563.00,309.00 563.00,309.00
             563.00,309.00 563.00,352.00 563.00,352.00
             563.00,352.00 554.00,352.00 554.00,352.00
             554.00,352.00 553.00,325.00 553.00,325.00
             553.00,325.00 547.00,352.00 547.00,352.00
             547.00,352.00 537.00,352.00 537.00,352.00
             537.00,352.00 530.00,325.00 530.00,325.00
             530.00,325.00 530.00,352.00 530.00,352.00
             530.00,352.00 521.00,352.00 521.00,352.00
             521.00,352.00 521.00,309.00 521.00,309.00 Z
           M 574.00,352.00
           C 574.00,352.00 586.00,319.00 586.00,319.00
             587.81,314.47 588.49,309.50 594.04,309.05
             602.57,308.36 602.52,313.30 605.20,320.00
             605.20,320.00 618.00,352.00 618.00,352.00
             615.41,352.00 609.54,352.40 607.51,350.98
             605.44,349.53 605.06,346.28 603.30,344.31
             600.92,341.65 597.27,341.95 594.00,342.00
             583.59,342.18 587.53,347.84 583.30,351.01
             581.47,352.38 576.33,352.00 574.00,352.00 Z
           M 628.00,309.00
           C 628.00,309.00 637.62,310.02 637.62,310.02
             637.62,310.02 643.40,318.00 643.40,318.00
             643.40,318.00 654.00,335.00 654.00,335.00
             654.00,335.00 654.00,309.00 654.00,309.00
             654.00,309.00 663.00,309.00 663.00,309.00
             663.00,309.00 663.00,352.00 663.00,352.00
             663.00,352.00 653.33,350.98 653.33,350.98
             653.33,350.98 647.40,343.00 647.40,343.00
             647.40,343.00 637.00,326.00 637.00,326.00
             637.00,326.00 637.00,352.00 637.00,352.00
             637.00,352.00 628.00,352.00 628.00,352.00
             628.00,352.00 628.00,309.00 628.00,309.00 Z
           M 674.00,352.00
           C 674.00,352.00 686.00,319.00 686.00,319.00
             687.81,314.47 688.49,309.50 694.04,309.05
             702.57,308.36 702.52,313.30 705.20,320.00
             705.20,320.00 718.00,352.00 718.00,352.00
             715.41,352.00 709.54,352.40 707.51,350.98
             705.44,349.53 705.06,346.28 703.30,344.31
             700.92,341.65 697.27,341.95 694.00,342.00
             683.59,342.18 687.53,347.84 683.30,351.01
             681.47,352.38 676.33,352.00 674.00,352.00 Z
           M 782.00,309.00
           C 782.00,309.00 815.00,309.00 815.00,309.00
             815.00,309.00 815.00,316.00 815.00,316.00
             815.00,316.00 792.00,316.00 792.00,316.00
             792.00,316.00 792.00,326.00 792.00,326.00
             792.00,326.00 813.00,326.00 813.00,326.00
             813.00,326.00 813.00,333.00 813.00,333.00
             813.00,333.00 792.00,333.00 792.00,333.00
             792.00,333.00 792.00,345.00 792.00,345.00
             792.00,345.00 816.00,345.00 816.00,345.00
             816.00,345.00 816.00,352.00 816.00,352.00
             816.00,352.00 782.00,352.00 782.00,352.00
             782.00,352.00 782.00,309.00 782.00,309.00 Z
           M 829.00,309.00
           C 829.00,309.00 843.00,309.00 843.00,309.00
             843.00,309.00 849.00,334.00 849.00,334.00
             849.00,334.00 851.00,334.00 851.00,334.00
             851.00,334.00 854.87,317.00 854.87,317.00
             854.87,317.00 857.72,309.99 857.72,309.99
             857.72,309.99 871.00,309.00 871.00,309.00
             871.00,309.00 871.00,352.00 871.00,352.00
             871.00,352.00 862.00,352.00 862.00,352.00
             862.00,352.00 861.00,325.00 861.00,325.00
             861.00,325.00 855.00,352.00 855.00,352.00
             855.00,352.00 845.00,352.00 845.00,352.00
             845.00,352.00 838.00,325.00 838.00,325.00
             838.00,325.00 838.00,352.00 838.00,352.00
             838.00,352.00 829.00,352.00 829.00,352.00
             829.00,352.00 829.00,309.00 829.00,309.00 Z
           M 886.00,309.00
           C 886.00,309.00 919.00,309.00 919.00,309.00
             919.00,309.00 919.00,316.00 919.00,316.00
             919.00,316.00 896.00,316.00 896.00,316.00
             896.00,316.00 896.00,326.00 896.00,326.00
             896.00,326.00 917.00,326.00 917.00,326.00
             917.00,326.00 917.00,333.00 917.00,333.00
             917.00,333.00 896.00,333.00 896.00,333.00
             896.00,333.00 896.00,345.00 896.00,345.00
             896.00,345.00 920.00,345.00 920.00,345.00
             920.00,345.00 920.00,352.00 920.00,352.00
             920.00,352.00 886.00,352.00 886.00,352.00
             886.00,352.00 886.00,309.00 886.00,309.00 Z
           M 933.00,309.00
           C 933.00,309.00 942.62,310.02 942.62,310.02
             942.62,310.02 948.40,318.00 948.40,318.00
             948.40,318.00 959.00,335.00 959.00,335.00
             959.00,335.00 959.00,309.00 959.00,309.00
             959.00,309.00 968.00,309.00 968.00,309.00
             968.00,309.00 968.00,352.00 968.00,352.00
             968.00,352.00 958.33,350.98 958.33,350.98
             958.33,350.98 952.40,343.00 952.40,343.00
             952.40,343.00 942.00,326.00 942.00,326.00
             942.00,326.00 942.00,352.00 942.00,352.00
             942.00,352.00 933.00,352.00 933.00,352.00
             933.00,352.00 933.00,309.00 933.00,309.00 Z
           M 980.00,309.00
           C 980.00,309.00 1015.00,309.00 1015.00,309.00
             1015.00,309.00 1015.00,316.00 1015.00,316.00
             1015.00,316.00 1002.00,316.00 1002.00,316.00
             1002.00,316.00 1002.00,352.00 1002.00,352.00
             1002.00,352.00 993.00,352.00 993.00,352.00
             993.00,352.00 993.00,316.00 993.00,316.00
             993.00,316.00 980.00,316.00 980.00,316.00
             980.00,316.00 980.00,309.00 980.00,309.00 Z
           M 355.00,316.43
           C 341.42,321.91 345.75,349.48 361.98,344.49
             371.62,341.53 371.79,324.25 365.61,318.43
             362.59,315.59 358.77,315.87 355.00,316.43 Z
           M 596.00,321.00
           C 596.00,321.00 590.00,335.00 590.00,335.00
             590.00,335.00 600.00,335.00 600.00,335.00
             600.00,335.00 596.00,321.00 596.00,321.00 Z
           M 696.00,321.00
           C 696.00,321.00 690.00,335.00 690.00,335.00
             690.00,335.00 700.00,335.00 700.00,335.00
             700.00,335.00 696.00,321.00 696.00,321.00 Z" />


</svg>
