<?xml version="1.0" encoding="UTF-8"?>
<svg width="280" height="100" viewBox="0 0 280 100" xmlns="http://www.w3.org/2000/svg">
  <!-- Famick Home Management Logo Lockup - Dark Mode (for dark backgrounds) -->

  <!-- "f" - Sage Green (brighter for dark mode) -->
  <text x="0" y="55" font-family="Arial Black, Arial, sans-serif" font-size="48" font-weight="900" fill="#A5C4A5">f</text>

  <!-- "a" - Sage Green (brighter) -->
  <text x="26" y="55" font-family="Arial Black, Arial, sans-serif" font-size="48" font-weight="900" fill="#A5C4A5">a</text>

  <!-- House "m" - Light Gray for dark mode -->
  <g transform="translate(56, 8)">
    <!-- House body (m shape) -->
    <path d="M0 52 L0 30 Q0 26 4 26 L10 26 L10 30 Q10 22 25 13 Q40 22 40 30 L40 26 L46 26 Q50 26 50 30 L50 52"
          fill="#BDBDBD" stroke="none"/>

    <!-- Chimney -->
    <rect x="36" y="6" width="5" height="10" rx="1" fill="#BDBDBD"/>

    <!-- Chimney smoke -->
    <g fill="#E0E0E0">
      <circle cx="38.5" cy="2" r="2.5"/>
      <circle cx="41" cy="0" r="1.5"/>
    </g>

    <!-- Left window -->
    <rect x="7" y="35" width="9" height="11" rx="1" fill="#2D4A2D"/>
    <line x1="11.5" y1="35" x2="11.5" y2="46" stroke="#BDBDBD" stroke-width="0.7"/>
    <line x1="7" y1="40.5" x2="16" y2="40.5" stroke="#BDBDBD" stroke-width="0.7"/>

    <!-- Right window -->
    <rect x="34" y="35" width="9" height="11" rx="1" fill="#2D4A2D"/>
    <line x1="38.5" y1="35" x2="38.5" y2="46" stroke="#BDBDBD" stroke-width="0.7"/>
    <line x1="34" y1="40.5" x2="43" y2="40.5" stroke="#BDBDBD" stroke-width="0.7"/>
  </g>

  <!-- "i" - Sage Green (dot + stem, brighter for dark mode) -->
  <circle cx="124" cy="17" r="7" fill="#7BA17C"/>
  <rect x="117" y="28" width="14" height="32" rx="2" fill="#7BA17C"/>

  <!-- "c" - Sage Green (brighter for dark mode) -->
  <text x="134" y="55" font-family="Arial Black, Arial, sans-serif" font-size="48" font-weight="900" fill="#7BA17C">c</text>

  <!-- "k" - Sage Green -->
  <text x="168" y="55" font-family="Arial Black, Arial, sans-serif" font-size="48" font-weight="900" fill="#7BA17C">k</text>

  <!-- "HOME MANAGEMENT" subtitle - Light Gray for dark mode -->
  <text x="0" y="85" font-family="Arial, sans-serif" font-size="18" font-weight="600" letter-spacing="3" fill="#BDBDBD">HOME MANAGEMENT</text>
</svg>
